<svg width="111" height="30" viewBox="0 0 111 30" fill="none" xmlns="http://www.w3.org/2000/svg">
<path fill-rule="evenodd" clip-rule="evenodd" d="M6.05111 10.0098L10.892 9.203C12.1022 9.00129 12.3039 8.39619 12.3039 7.79107C12.3039 6.37915 11.2954 5.16893 8.87496 5.16893C6.45452 5.16893 5.2443 6.58085 5.04259 8.39618L0.201704 7.38767C0.605111 4.16041 3.42896 0.731445 8.87496 0.731445C15.1278 0.731445 17.5482 4.36211 17.5482 8.39618V18.2797C17.5482 18.812 17.6044 19.4568 17.6575 20.0656C17.705 20.6102 17.7499 21.126 17.7499 21.5069H12.909C12.7073 20.9018 12.7073 19.8933 12.7073 19.0865C11.6988 20.7001 9.68178 22.112 6.85793 22.112C2.62215 22.112 0 19.2882 0 16.0609C0 12.4303 2.62215 10.4132 6.05111 10.0098ZM12.5056 13.4388V12.632L8.06815 13.2371C6.65622 13.4388 5.6477 14.2456 5.6477 15.8592C5.6477 17.0694 6.45452 18.2797 8.26985 18.2797C10.2869 18.078 12.5056 16.8677 12.5056 13.4388Z" fill="#141414"/>
<path d="M25.6165 11.4217L18.5569 1.33656H25.0114C25.4466 2.06189 26.9251 4.24792 28.0213 5.86858L28.0218 5.86937L28.0231 5.87126C28.4503 6.50285 28.8192 7.04833 29.0455 7.38767L33.0795 1.33656H43.9716L47.804 14.2456L52.0398 1.33656H57.6875L62.1249 14.2456L65.7556 1.33656H71.2016L64.9488 21.5069H59.5028L54.8636 7.79108L50.2244 21.5069H44.7784L38.5735 2.11654L32.071 11.22L39.3323 21.5069H33.0795L28.8438 15.2541C28.0369 16.2626 25.4148 20.2967 24.8097 21.5069H18.7586L25.6165 11.4217Z" fill="#141414"/>
<path fill-rule="evenodd" clip-rule="evenodd" d="M76.6477 10.0098L81.4885 9.203C82.6988 9.00129 82.9005 8.39619 82.9005 7.79107C82.9005 6.37915 81.892 5.16893 79.4715 5.16893C77.0511 5.16893 75.8408 6.58085 75.6391 8.39618L70.7982 7.38767C71.2017 4.16041 74.0255 0.731445 79.4715 0.731445C85.7243 0.731445 88.1448 4.36211 88.1448 8.39618V18.2797C88.1448 18.8119 88.201 19.4566 88.254 20.0653C88.3015 20.6099 88.3465 21.126 88.3465 21.5069H83.3039C83.1022 20.9018 83.1022 19.8933 83.1022 19.0865C82.0937 20.7001 80.0766 22.112 77.2528 22.112C73.017 22.112 70.3949 19.2882 70.3949 16.0609C70.5965 12.4303 73.2187 10.4132 76.6477 10.0098ZM83.1022 13.4388V12.632L78.6647 13.2371C77.2528 13.4388 76.2442 14.2456 76.2442 15.8592C76.2442 17.0694 77.0511 18.2797 78.8664 18.2797C80.8834 18.078 83.1022 16.8677 83.1022 13.4388Z" fill="#141414"/>
<path d="M96.4146 18.8848L91.7754 29.3734H97.4231L110.13 1.33656H104.281L99.4402 13.2371L93.9942 1.33656H87.943L96.4146 18.8848Z" fill="#141414"/>
</svg>
