<svg width="31" height="36" viewBox="0 0 31 36" fill="none" xmlns="http://www.w3.org/2000/svg">
<path d="M5.88845 0.135613L0.272873 4.24375C0.101097 4.36942 0.000244141 4.56507 0.000244141 4.77265V8.18836C0.000244141 8.73321 0.644497 9.04651 1.10069 8.72351L8.75728 3.30217C9.09022 3.06644 9.1348 2.60415 8.8527 2.31353L6.81163 0.211012C6.56962 -0.038288 6.1707 -0.0708703 5.88845 0.135613Z" fill="#F1F68E"/>
<path d="M23.1832 14.8301L3.12026 28.2079C2.7363 28.4639 2.72175 29.005 3.09144 29.2798L5.59336 31.1392C5.83161 31.3163 6.16173 31.3246 6.40927 31.1596L26.5628 17.7281C26.9544 17.4672 26.9604 16.9125 26.5746 16.6437L23.982 14.838C23.7444 14.6725 23.4242 14.6694 23.1832 14.8301Z" fill="#F1F68E"/>
<path d="M28.8911 20.4136L9.90558 32.9261C9.51887 33.1809 9.50274 33.7244 9.87368 34.0001L12.3782 35.8615C12.6132 36.0361 12.9378 36.0468 13.1847 35.8881L29.6657 25.2878C29.8574 25.1645 29.9725 24.9573 29.9725 24.7354V20.9618C29.9725 20.4272 29.3496 20.1114 28.8911 20.4136Z" fill="#F1F68E"/>
<path d="M17.3555 0.34211L0.27177 12.8921C0.100644 13.0178 0.000244141 13.2131 0.000244141 13.4202V16.8196C0.000244141 17.3677 0.651137 17.6801 1.10645 17.3506L20.2359 3.50852C20.564 3.27115 20.6057 2.81262 20.3255 2.52401L18.2798 0.416701C18.0375 0.167027 17.6378 0.134772 17.3555 0.34211Z" fill="#F1F68E"/>
<path d="M29.6632 1.39257L0.291616 21.4156C0.108856 21.5402 0.000244141 21.7423 0.000244141 21.9578V25.3822C0.000244141 25.9227 0.635524 26.2371 1.09278 25.9229L30.4643 5.73617C30.6458 5.61142 30.7535 5.41007 30.7535 5.19552V1.93471C30.7535 1.39534 30.1207 1.08068 29.6632 1.39257Z" fill="#F1F68E"/>
</svg>
